# AST/ASF file generated using VICON BodyLanguage
# -----------------------------------------------
:version 1.10
:name VICON
:units
  mass 1.0
  length 0.45
  angle deg
:documentation
   .ast/.asf automatically generated from VICON data using
   VICON BodyBuilder and BodyLanguage model FoxedUp or BRILLIANT.MOD
:root
   order TX TY TZ RX RY RZ
   axis XYZ
   position 0 0 0  
   orientation 0 0 0 
:bonedata
  begin
     id 1 
     name lhipjoint
     direction 0.61886 -0.69539 0.365302 
     length 2.20474 
     axis 0 0 0  XYZ
  end
  begin
     id 2 
     name lfemur
     direction 0.34202 -0.939693 0  
     length 6.65149  
     axis 0 0 20  XYZ
    dof rx ry rz
    limits (-160.0 20.0)
           (-70.0 70.0)
           (-60.0 70.0)
  end
  begin
     id 3 
     name ltibia
     direction 0.34202 -0.939693 0   
     length 6.35814   
     axis 0 0 20   XYZ
    dof rx
    limits (-10.0 170.0)
  end
  begin
     id 4 
     name lfoot
     direction 0.101224 -0.278109 0.955201   
     length 2.18766   
     axis -90 7.62852e-016 20   XYZ
    dof rx rz
    limits (-45.0 90.0)
           (-70.0 20.0)
  end
  begin
     id 5 
     name ltoes
     direction 1.53524e-011 -4.21877e-011 1   
     length 1.09206   
     axis -90 7.62852e-016 20   XYZ
    dof rx
    limits (-90.0 20.0)
  end
  begin
     id 6 
     name rhipjoint
     direction -0.600207 -0.708087 0.371972   
     length 2.1652  
     axis 0 0 0  XYZ 
  end
  begin
     id 7 
     name rfemur
     direction -0.34202 -0.939693 0   
     length 6.54691   
     axis 0 0 -20   XYZ
    dof rx ry rz
    limits (-160.0 20.0)
           (-70.0 70.0)
           (-70.0 60.0)
  end
  begin
     id 8 
     name rtibia
     direction -0.34202 -0.939693 0   
     length 6.37474   
     axis 0 0 -20   XYZ
    dof rx
    limits (-10.0 170.0)
 end
 begin
     id 9 
     name rfoot
     direction -0.111266 -0.3057 0.945604   
     length 2.00903  
     axis -90 -7.62852e-016 -20   XYZ
    dof rx rz
    limits (-45.0 90.0)
           (-20.0 70.0)
  end
  begin
     id 10 
     name rtoes
     direction -1.5362e-011 -4.21913e-011 1   
     length 1.00221   
     axis -90 -7.62852e-016 -20   XYZ
    dof rx
    limits (-90.0 20.0)
  end
  begin
     id 11 
     name lowerback
     direction -0.0224561 0.999731 -0.00577314   
     length 2.10409   
     axis 0 0 0   XYZ
    dof rx ry rz
    limits (-20.0 45.0)
           (-30.0 30.0)
           (-30.0 30.0)
  end
  begin
     id 12 
     name upperback
     direction 0.0213126 0.999185 -0.0342817   
     length 2.09783   
     axis 0 0 0   XYZ
    dof rx ry rz
    limits (-20.0 45.0)
           (-30.0 30.0)
           (-30.0 30.0)
  end
  begin
     id 13 
     name thorax
     direction 0.0312356 0.999036 -0.0308451   
     length 2.09788   
     axis 0 0 0   XYZ
    dof rx ry rz
    limits (-20.0 45.0)
           (-30.0 30.0)
           (-30.0 30.0)
  end
  begin
     id 14 
     name lowerneck
     direction -0.0114419 0.996481 0.0830329   
     length 1.38575   
     axis 0 0 0   XYZ
    dof rx ry rz
    limits (-20.0 45.0)
           (-30.0 30.0)
           (-30.0 30.0)
  end
  begin
     id 15 
     name upperneck
     direction -0.0075675 0.996187 -0.0869092   
     length 1.39401   
     axis 0 0 0   XYZ
    dof rx ry rz
    limits (-20.0 45.0)
           (-30.0 30.0)
           (-30.0 30.0)
  end
  begin
     id 16
     name head
     direction -0.00222073 0.999264 -0.0382974  
     length 1.3964  
     axis 0 0 0   XYZ
    dof rx ry rz
    limits (-20.0 45.0)
           (-30.0 30.0)
           (-30.0 30.0)
  end
  begin
     id 17 
     name lclavicle
     direction 0.965962 0.222138 0.132556  
     length 2.81514  
     axis 0 0 0   XYZ
    dof ry rz
    limits (-20.0 10.0)
           (0.0 20.0)
  end
  begin
     id 18 
     name lhumerus
     direction 1 -4.48972e-011 7.03471e-018   
     length 4.47366   
     axis 180 -30 -90   XYZ
    dof rx ry rz
    limits (-60.0 90.0)
           (-90.0 90.0)
           (-90.0 90.0)
  end
  begin
     id 19
     name lradius
     direction 1 -4.48951e-011 -6.22192e-028   
     length 3.19948   
     axis 180 -30 -90   XYZ
    dof rx
    limits (-10.0 170.0)
  end
  begin
     id 20
     name lwrist
     direction 1 -4.48967e-011 -1.24264e-027   
     length 1.59974   
     axis 1.40095e-015 90 90   XYZ
    dof ry
    limits (-180.0 0.0)
 end
  begin
     id 21 
     name lhand
     direction 1 -4.4897e-011 -2.48528e-027   
     length 0.492667   
     axis 1.58582e-015 90 90   XYZ
    dof rx rz
    limits (-90.0 90.0)
           (-45.0 45.0)
  end
  begin
     id 22 
     name lfingers
     direction 1 -4.48996e-011 -4.97056e-027   
     length 0.397201   
     axis 3.17164e-015 90 90   XYZ
    dof rx
    limits (0.0 90.0)
  end
  begin
     id 23
     name lthumb
     direction 0.707107 -6.34981e-011 0.707107   
     length 0.570303   
     axis -90 45 2.85299e-015   XYZ
    dof rx rz
    limits (-45.0 45.0)
           (-45.0 45.0)
  end
  begin
     id 24 
     name rclavicle
     direction -0.961164 0.229034 0.153972   
     length 3.09348  
     axis 0 0 0   XYZ 
    dof ry rz
    limits (-10.0 20.0)
           (-20.0 0.0)
  end
  begin
     id 25 
     name rhumerus
     direction -1 -4.48971e-011 -9.06263e-028  
     length 4.3269   
     axis 180 30 90   XYZ
    dof rx ry rz
    limits (-90.0 60.0)
           (-90.0 90.0)
           (-90.0 90.0)
  end
  begin
     id 26 
     name rradius
     direction -1 -4.48953e-011 1.44659e-027   
     length 3.1896   
     axis 180 30 90   XYZ
    dof rx
    limits (-10.0 170.0)
  end
  begin
     id 27 
     name rwrist
     direction -1 -4.48988e-011 -1.24264e-027   
     length 1.5948   
     axis 1.40095e-015 -90 -90   XYZ
    dof ry
    limits (-180.0 0.0)
  end
  begin
     id 28
     name rhand
     direction -1 -4.49033e-011 -2.48528e-027   
     length 0.464496   
     axis 1.58582e-015 -90 -90   XYZ
    dof rx rz
    limits (-90.0 90.0)
           (-45.0 45.0)
  end
  begin
     id 29
     name rfingers
     direction -1 -4.48905e-011 -4.97056e-027   
     length 0.374489   
     axis 3.17164e-015 -90 -90   XYZ
    dof rx
    limits (0.0 90.0)
  end
  begin
     id 30
     name rthumb
     direction -0.707107 -6.34909e-011 0.707107   
     length 0.537693   
     axis -90 -45 -2.85299e-015   XYZ
    dof rx rz
    limits (-45.0 45.0)
           (-45.0 45.0)
  end
:hierarchy
  begin
    root lhipjoint rhipjoint lowerback
    lhipjoint lfemur
    lfemur ltibia
    ltibia lfoot
    lfoot ltoes
    rhipjoint rfemur
    rfemur rtibia
    rtibia rfoot
    rfoot rtoes
    lowerback upperback
    upperback thorax
    thorax lowerneck lclavicle rclavicle
    lowerneck upperneck
    upperneck head
    lclavicle lhumerus
    lhumerus lradius
    lradius lwrist
    lwrist lhand lthumb
    lhand lfingers
    rclavicle rhumerus
    rhumerus rradius
    rradius rwrist
    rwrist rhand rthumb
    rhand rfingers
  end

#!OML:ASF G:\acrobat\cartwheel_test 2\Patient 1\Session 2\acrobat4.ASF
:FULLY-SPECIFIED
:DEGREES
1922
root 9.18071 20.7312 5.51608 364.804 -13.4638 356.729
lowerback -2.82443 0.586394 1.80114
upperback 1.86535 0.593441 3.20144
thorax 3.49127 0.294892 2.32511
lowerneck -11.2302 -2.47848 -2.70544
upperneck 40.4461 -3.15174 -0.474138
head 16.45 -1.86492 -0.271649
rclavicle 7.95139e-015 3.97569e-015
rhumerus -38.3823 -14.3313 -45.6609
rradius 39.0751
rwrist 7.82674
rhand -19.4179 -31.4197
rfingers 7.12502
rthumb 6.9018 298.713
lclavicle 7.95139e-015 3.97569e-015
lhumerus -22.135 11.4983 47.5485
lradius 46.973
lwrist 30.7479
lhand -42.0796 727.363
lfingers 7.12502
lthumb -14.9719 -683.198
rfemur 1.23126 8.56771 29.8523
rtibia 35.0545
rfoot -25.9808 -5.86791
rtoes -10.8547
lfemur -39.3058 2.63464 -18.5482
ltibia 41.6185
lfoot -17.3376 10.685
ltoes -48.1046
1923
root 9.18731 20.7611 5.68511 364.812 -13.7912 356.977
lowerback -2.77352 0.469235 1.48733
upperback 1.93886 0.450376 3.18565
thorax 3.53983 0.216053 2.4771
lowerneck -10.7806 -2.27057 -2.29186
upperneck 40.2835 -2.80611 -0.892238
head 16.2253 -1.72075 -0.461642
rclavicle -1.10325e-014 2.78299e-014
rhumerus -38.535 -13.7519 -46.0078
rradius 40.7425
rwrist 6.67283
rhand -18.8922 -31.7045
rfingers 7.12502
rthumb 7.40917 298.445
lclavicle -1.10325e-014 2.78299e-014
lhumerus -22.1867 10.5432 48.1487
lradius 47.7791
lwrist 30.8019
lhand -41.8713 727.23
lfingers 7.12502
lthumb -14.7712 -683.316
rfemur 1.27845 8.7301 29.4648
rtibia 35.7248
rfoot -25.2102 -5.13203
rtoes -9.41802
lfemur -38.7855 2.94077 -19.1488
ltibia 41.8302
lfoot -17.2899 11.5471
ltoes -48.0873
1924
root 9.19994 20.7837 5.85193 364.802 -14.1676 357.515
lowerback -2.76776 0.364116 1.02527
upperback 2.0036 0.334236 3.01959
thorax 3.60495 0.14887 2.55882
lowerneck -10.4987 -2.17615 -2.00615
upperneck 40.1992 -2.65806 -1.15307
head 16.0969 -1.65618 -0.596845
rclavicle 6.26172e-015 1.59028e-015
rhumerus -38.8531 -13.1842 -46.5583
rradius 42.5727
rwrist 5.90083
rhand -18.1469 -32.1896
rfingers 7.12502
rthumb 8.12855 297.987
lclavicle 6.26172e-015 1.59028e-015
lhumerus -22.0831 9.37509 49.0133
lradius 48.3937
lwrist 30.6601
lhand -41.2838 727.161
lfingers 7.12502
lthumb -14.2052 -683.345
rfemur 1.20191 8.71016 28.7426
rtibia 36.6751
rfoot -24.6515 -4.62486
rtoes -9.32966
lfemur -38.282 2.8266 -19.921
ltibia 41.9729
lfoot -17.3162 12.4206
ltoes -47.9347
1925
root 9.21651 20.8124 6.01387 364.876 -14.7503 358.023
lowerback -2.76975 0.281274 0.603745
upperback 2.02191 0.246945 2.87047
thorax 3.62666 0.0968192 2.63662
lowerneck -11.2967 -2.59449 -2.97009
upperneck 40.3352 -3.30446 -0.44192
head 16.4181 -1.97667 -0.239339
rclavicle -2.3556e-014 -1.59028e-014
rhumerus -39.0232 -12.5925 -47.3173
rradius 44.2377
rwrist 5.14544
rhand -17.1877 -32.469
rfingers 7.12502
rthumb 9.05423 297.745
lclavicle -2.3556e-014 -1.59028e-014
lhumerus -21.9755 8.31145 50.224
lradius 48.6963
lwrist 30.2714
lhand -40.8093 727.053
lfingers 7.12502
lthumb -13.7478 -683.422
rfemur 0.825805 8.38408 27.9251
rtibia 37.936
rfoot -24.0593 -3.91107
rtoes -9.93535
lfemur -37.8506 3.16381 -20.7563
ltibia 42.0747
lfoot -17.445 13.0291
ltoes -47.9627
1926
root 9.23258 20.8475 6.16863 365.037 -15.5299 358.248
lowerback -2.77111 0.233403 0.337667
upperback 2.01645 0.194991 2.86238
thorax 3.62312 0.0643007 2.77501
lowerneck -10.7614 -2.12915 -2.27745
upperneck 40.4822 -2.55416 -1.12468
head 16.3204 -1.66068 -0.532647
rclavicle 2.44505e-014 -1.19271e-014
rhumerus -39.0858 -12.0273 -48.1566
rradius 45.6595
rwrist 4.26819
rhand -17.2005 -31.6209
rfingers 7.12502
rthumb 9.04189 298.593
lclavicle 2.44505e-014 -1.19271e-014
lhumerus -21.887 7.32103 51.8464
lradius 48.7635
lwrist 29.7553
lhand -40.521 726.855
lfingers 7.12502
lthumb -13.47 -683.601
rfemur 0.153349 7.71156 27.3095
rtibia 39.5012
rfoot -23.2372 -3.19621
rtoes -10.8732
lfemur -37.3534 3.63193 -21.2156
ltibia 42.2042
lfoot -17.9487 13.5864
ltoes -47.9596
1927
root 9.24854 20.8785 6.31336 365.289 -16.3619 358.292
lowerback -2.79011 0.217423 0.222017
upperback 2.00318 0.177889 2.8789
thorax 3.62062 0.052599 2.85636
lowerneck -11.177 -2.35232 -2.66513
upperneck 40.3435 -2.9073 -0.825599
head 16.3689 -1.82908 -0.397004
rclavicle -4.51241e-014 2.14687e-014
rhumerus -39.2564 -11.4799 -49.175
rradius 47.1477
rwrist 3.46718
rhand -18.0082 -30.8161
rfingers 7.12502
rthumb 8.26237 299.365
lclavicle -4.51241e-014 2.14687e-014
lhumerus -21.7545 6.28934 53.7475
lradius 48.7824
lwrist 29.1066
lhand -40.1627 726.61
lfingers 7.12502
lthumb -13.1246 -683.823
rfemur -0.767836 6.75836 26.85
rtibia 41.3267
rfoot -22.267 -2.5591
rtoes -11.2442
lfemur -36.9835 4.157 -21.4479
ltibia 42.3989
lfoot -18.4622 14.0713
ltoes -47.9052
1928
root 9.26491 20.9151 6.44736 365.546 -17.3257 358.373
lowerback -2.76933 0.194652 0.0318239
upperback 1.9897 0.15713 2.85743
thorax 3.5955 0.0379546 2.93977
lowerneck -11.1709 -2.39958 -2.77231
upperneck 40.1361 -3.00506 -0.725502
head 16.2625 -1.87819 -0.348191
rclavicle -2.17669e-014 -7.95139e-015
rhumerus -39.2463 -10.9767 -50.3953
rradius 48.5301
rwrist 3.17697
rhand -17.91 -30.987
rfingers 7.12502
rthumb 8.35723 299.198
lclavicle -2.17669e-014 -7.95139e-015
lhumerus -21.7242 5.16681 55.8111
lradius 48.8516
lwrist 28.5762
lhand -40.08 726.573
lfingers 7.12502
lthumb -13.0449 -683.854
rfemur -1.86846 5.62624 26.3306
rtibia 43.3714
rfoot -21.208 -2.01829
rtoes -10.9961
lfemur -36.6508 4.68574 -21.6621
ltibia 42.6009
lfoot -19.1211 14.3638
ltoes -47.6541
